<svg xmlns="http://www.w3.org/2000/svg" viewBox="0 0 512 512">
	<path fill="#1b274d" d="M48.07 465.91c15.74-61.35 31.18-121.56 46.86-182.68h69.53l12.67 25.87H115.3c-10.84 43.67-21.3 85.83-32.11 129.42h339.72c-10.79-43.52-21.24-85.66-31.93-128.77h-49.44l9.09-26.73h60.43c15.5 60.29 31.08 120.91 47.02 182.88-136.83.01-272.23.01-410.01.01z" />
	<path fill="#1b274d" d="M258.12 409.99c-42.23-76.71-81.72-150.91-104.72-232.26-12.2-43.16 1.97-80.26 36.33-108.28 34.46-28.1 73.87-32.5 113.68-13.79 39.17 18.41 60.65 50.77 62.02 94.8.28 8.89-1 18.22-3.59 26.73-24.59 80.78-62.87 155.43-103.72 232.8zm33.87-255.35c.42-19.19-14.5-34.85-33.47-35.09-18.96-.25-34.87 14.89-35.26 33.55-.39 18.71 14.69 34.44 33.7 35.16 18.77.71 34.61-14.48 35.03-33.62z" />
</svg>